<svg xmlns="http://www.w3.org/2000/svg" width="153" height="15" viewBox="0 0 153 15" fill="none"><path d="M0.684802 14H6.75009C9.67041 14 11.5986 12.7458 11.5986 10.4058V10.3683C11.5986 8.58991 10.5315 7.71007 8.99649 7.18591C9.96993 6.68047 10.8685 5.83807 10.8685 4.26559V4.22815C10.8685 3.34831 10.569 2.63695 9.98865 2.05663C9.23985 1.30783 8.06049 0.895986 6.56289 0.895986H0.684802V14ZM2.94992 6.41839V2.93647H6.26337C7.74225 2.93647 8.56593 3.57295 8.56593 4.60255V4.63999C8.56593 5.83807 7.57377 6.41839 6.09489 6.41839H2.94992ZM2.94992 11.9595V8.36527H6.60033C8.41617 8.36527 9.29601 9.02048 9.29601 10.125V10.1624C9.29601 11.3418 8.34129 11.9595 6.76881 11.9595H2.94992ZM14.1947 14H24.0039V11.9408H16.4972V8.42143H23.0679V6.36223H16.4972V2.95519H23.9103V0.895986H14.1947V14ZM32.9507 14.2246C35.2719 14.2246 37.1252 13.2886 38.4169 12.1842V6.68047H32.8383V8.68351H36.1892V11.1358C35.3843 11.7349 34.2611 12.128 33.0255 12.128C30.3486 12.128 28.5702 10.1437 28.5702 7.44799V7.41055C28.5702 4.90207 30.4047 2.78671 32.8196 2.78671C34.4857 2.78671 35.4779 3.32959 36.4887 4.19071L37.9489 2.44975C36.6011 1.30783 35.1971 0.671347 32.9132 0.671347C28.9633 0.671347 26.1553 3.77887 26.1553 7.44799V7.48543C26.1553 11.3043 28.851 14.2246 32.9507 14.2246ZM47.668 14.2246C51.6928 14.2246 54.5382 11.1358 54.5382 7.44799V7.41055C54.5382 3.72271 51.7302 0.671347 47.7054 0.671347C43.6806 0.671347 40.8351 3.76015 40.8351 7.44799V7.48543C40.8351 11.1733 43.6432 14.2246 47.668 14.2246ZM47.7054 12.1093C45.1033 12.1093 43.25 9.99392 43.25 7.44799V7.41055C43.25 4.86463 45.0659 2.78671 47.668 2.78671C50.27 2.78671 52.1233 4.90207 52.1233 7.44799V7.48543C52.1233 10.0314 50.3075 12.1093 47.7054 12.1093ZM62.9325 14H65.2351V9.43232H68.118L71.3378 14H74.0522L70.5141 9.03919C72.3487 8.51503 73.6404 7.22335 73.6404 5.07055V5.03311C73.6404 3.89119 73.2473 2.91775 72.5546 2.20639C71.7122 1.38271 70.4205 0.895986 68.7732 0.895986H62.9325V14ZM65.2351 7.39183V2.99263H68.586C70.2895 2.99263 71.3004 3.76015 71.3004 5.16415V5.20159C71.3004 6.53071 70.252 7.39183 68.6047 7.39183H65.2351ZM82.7131 14.2246C86.7379 14.2246 89.5834 11.1358 89.5834 7.44799V7.41055C89.5834 3.72271 86.7754 0.671347 82.7506 0.671347C78.7258 0.671347 75.8803 3.76015 75.8803 7.44799V7.48543C75.8803 11.1733 78.6883 14.2246 82.7131 14.2246ZM82.7506 12.1093C80.1485 12.1093 78.2952 9.99392 78.2952 7.44799V7.41055C78.2952 4.86463 80.1111 2.78671 82.7131 2.78671C85.3152 2.78671 87.1685 4.90207 87.1685 7.44799V7.48543C87.1685 10.0314 85.3527 12.1093 82.7506 12.1093ZM92.3654 14H94.6305V4.63999L98.7302 10.7802H98.805L102.942 4.60255V14H105.245V0.895986H102.792L98.805 7.09231L94.8177 0.895986H92.3654V14ZM108.617 14H118.427V11.9408H110.92V8.42143H117.491V6.36223H110.92V2.95519H118.333V0.895986H108.617V14ZM121.158 14H123.461V9.43232H126.344L129.564 14H132.278L128.74 9.03919C130.575 8.51503 131.866 7.22335 131.866 5.07055V5.03311C131.866 3.89119 131.473 2.91775 130.78 2.20639C129.938 1.38271 128.646 0.895986 126.999 0.895986H121.158V14ZM123.461 7.39183V2.99263H126.812C128.515 2.99263 129.526 3.76015 129.526 5.16415V5.20159C129.526 6.53071 128.478 7.39183 126.831 7.39183H123.461ZM140.939 14.2246C144.964 14.2246 147.809 11.1358 147.809 7.44799V7.41055C147.809 3.72271 145.001 0.671347 140.976 0.671347C136.952 0.671347 134.106 3.76015 134.106 7.44799V7.48543C134.106 11.1733 136.914 14.2246 140.939 14.2246ZM140.976 12.1093C138.374 12.1093 136.521 9.99392 136.521 7.44799V7.41055C136.521 4.86463 138.337 2.78671 140.939 2.78671C143.541 2.78671 145.394 4.90207 145.394 7.44799V7.48543C145.394 10.0314 143.579 12.1093 140.976 12.1093Z" fill="#111010"></path><path d="M150.179 14H152.669V11.4354H150.179V14Z" fill="#FF0049"></path></svg>